<svg width="20" height="20" viewBox="0 0 20 20" fill="none" xmlns="http://www.w3.org/2000/svg">
<path d="M9.99998 0.833374C8.33592 0.833374 6.80097 1.25135 5.39513 2.0873C3.98929 2.89443 2.87035 4.00423 2.03832 5.41671C1.23498 6.82918 0.833313 8.37137 0.833313 10.0433C0.833313 11.5711 1.16326 12.9979 1.82314 14.3239C2.51172 15.6211 3.44416 16.7021 4.62048 17.5669C5.7968 18.4316 7.11657 18.9649 8.57979 19.1667V12.7241H6.25585V10.0433H8.57979V8.01105C8.57979 6.88683 8.88104 6.00764 9.48355 5.37347C10.1147 4.7393 10.9611 4.42221 12.0227 4.42221C12.7112 4.42221 13.3998 4.47986 14.0884 4.59517V6.88683H12.9264C12.41 6.88683 12.0227 7.03096 11.7645 7.31922C11.5349 7.57866 11.4202 7.91016 11.4202 8.31372V10.0433H14.0023L13.572 12.7241H11.4202V19.1667C12.9121 18.9361 14.2462 18.3884 15.4225 17.5236C16.5988 16.6588 17.5169 15.5779 18.1768 14.2807C18.8367 12.9547 19.1666 11.5422 19.1666 10.0433C19.1666 8.37137 18.7506 6.82918 17.9186 5.41671C17.1153 4.00423 16.0107 2.89443 14.6048 2.0873C13.199 1.25135 11.664 0.833374 9.99998 0.833374Z" fill="white"/>
</svg>
