<svg width="20" height="20" viewBox="0 0 20 20" fill="none" xmlns="http://www.w3.org/2000/svg">
<path d="M6.12674 0.833374H13.8732C14.82 0.833374 15.6951 1.07724 16.4984 1.56499C17.3304 2.02404 17.976 2.66958 18.435 3.50161C18.9228 4.30494 19.1666 5.18001 19.1666 6.1268V13.8733C19.1666 14.8201 18.9228 15.7095 18.435 16.5415C17.976 17.3448 17.3304 17.976 16.4984 18.4351C15.6951 18.9228 14.82 19.1667 13.8732 19.1667H6.12674C5.17995 19.1667 4.29054 18.9228 3.45851 18.4351C2.65517 17.976 2.00963 17.3448 1.52189 16.5415C1.06284 15.7095 0.833313 14.8201 0.833313 13.8733V6.1268C0.833313 5.18001 1.06284 4.30494 1.52189 3.50161C2.00963 2.66958 2.65517 2.02404 3.45851 1.56499C4.29054 1.07724 5.17995 0.833374 6.12674 0.833374ZM5.9546 2.64089C5.03649 2.64089 4.2475 2.97083 3.58762 3.63071C2.95642 4.26191 2.64082 5.03656 2.64082 5.95466V14.0454C2.64082 14.9635 2.95642 15.7525 3.58762 16.4124C4.2475 17.0436 5.03649 17.3592 5.9546 17.3592H14.0454C14.9635 17.3592 15.7381 17.0436 16.3693 16.4124C17.0292 15.7525 17.3591 14.9635 17.3591 14.0454V5.95466C17.3591 5.03656 17.0292 4.26191 16.3693 3.63071C15.7381 2.97083 14.9635 2.64089 14.0454 2.64089H5.9546ZM14.82 4.01804C15.1356 4.01804 15.4082 4.1328 15.6377 4.36233C15.8672 4.59185 15.982 4.86441 15.982 5.18001C15.982 5.49561 15.8672 5.76817 15.6377 5.99769C15.4082 6.22722 15.1356 6.34198 14.82 6.34198C14.5044 6.34198 14.2319 6.22722 14.0023 5.99769C13.7728 5.76817 13.658 5.49561 13.658 5.18001C13.658 4.86441 13.7728 4.59185 14.0023 4.36233C14.2319 4.1328 14.5044 4.01804 14.82 4.01804ZM9.99998 5.39519C10.832 5.39519 11.5923 5.61037 12.2809 6.04073C12.9982 6.4424 13.5576 7.00187 13.9593 7.71913C14.3896 8.40771 14.6048 9.16801 14.6048 10C14.6048 10.8321 14.3896 11.6067 13.9593 12.324C13.5576 13.0126 12.9982 13.572 12.2809 14.0024C11.5923 14.4041 10.832 14.6049 9.99998 14.6049C9.16795 14.6049 8.3933 14.4041 7.67604 14.0024C6.98746 13.572 6.42799 13.0126 5.99763 12.324C5.59596 11.6067 5.39513 10.8321 5.39513 10C5.39513 9.16801 5.59596 8.40771 5.99763 7.71913C6.42799 7.00187 6.98746 6.4424 7.67604 6.04073C8.3933 5.61037 9.16795 5.39519 9.99998 5.39519ZM9.99998 7.24574C9.22533 7.24574 8.56545 7.5183 8.02032 8.06342C7.50389 8.57985 7.24568 9.22539 7.24568 10C7.24568 10.7747 7.50389 11.4346 8.02032 11.9797C8.56545 12.4961 9.22533 12.7543 9.99998 12.7543C10.7746 12.7543 11.4202 12.4961 11.9366 11.9797C12.4817 11.4346 12.7543 10.7747 12.7543 10C12.7543 9.22539 12.4817 8.57985 11.9366 8.06342C11.4202 7.5183 10.7746 7.24574 9.99998 7.24574Z" fill="white"/>
</svg>
