<svg width="20" height="19" viewBox="0 0 20 19" fill="none" xmlns="http://www.w3.org/2000/svg">
<path d="M17.1137 0.666626C17.6866 0.666626 18.1641 0.864109 18.546 1.25907C18.9598 1.62366 19.1667 2.07939 19.1667 2.62626V16.207C19.1667 16.7539 18.9598 17.2248 18.546 17.6198C18.1641 17.9843 17.6866 18.1666 17.1137 18.1666H2.88629C2.31338 18.1666 1.82003 17.9843 1.40626 17.6198C1.02432 17.2248 0.833344 16.7539 0.833344 16.207V2.62626C0.833344 2.07939 1.02432 1.62366 1.40626 1.25907C1.82003 0.864109 2.31338 0.666626 2.88629 0.666626H17.1137ZM16.6363 15.7513V10.6015C16.6363 9.72044 16.3021 8.97609 15.6337 8.36845C14.9971 7.73043 14.2173 7.41142 13.2943 7.41142C12.8487 7.41142 12.4031 7.53295 11.9575 7.776C11.5119 8.01906 11.1777 8.32288 10.9549 8.68746V7.59371H8.09029V15.7513H10.9549V10.9205C10.9549 10.5559 11.0822 10.2521 11.3368 10.0091C11.6233 9.73564 11.9575 9.59892 12.3394 9.59892C12.7532 9.59892 13.0874 9.73564 13.342 10.0091C13.6285 10.2521 13.7717 10.5559 13.7717 10.9205V15.7513H16.6363ZM4.79602 6.0898C5.27345 6.0898 5.67131 5.93789 5.98959 5.63407C6.33971 5.29987 6.51477 4.90491 6.51477 4.44918C6.51477 3.99345 6.33971 3.61367 5.98959 3.30985C5.67131 2.97565 5.27345 2.80855 4.79602 2.80855C4.31859 2.80855 3.90481 2.97565 3.5547 3.30985C3.23641 3.61367 3.07727 3.99345 3.07727 4.44918C3.07727 4.90491 3.23641 5.29987 3.5547 5.63407C3.90481 5.93789 4.31859 6.0898 4.79602 6.0898ZM6.18057 15.7513V7.59371H3.36373V15.7513H6.18057Z" fill="white"/>
</svg>
