<svg width="62" height="99" viewBox="0 0 62 99" fill="none" xmlns="http://www.w3.org/2000/svg">
<path d="M16.1198 12.7201C26.5688 5.81756 38.6819 1.8524 51.1898 1.24007C60.6398 0.610071 63.0799 6.72007 57.3899 13.9301C43.802 31.9205 25.0248 45.3123 3.58984 52.3001C8.29627 46.6712 14.1631 42.1255 20.789 38.974C27.4149 35.8224 34.6433 34.1394 41.9799 34.0401C46.6099 34.0401 51.7998 34.9401 54.4998 38.7001C57.9898 43.5601 55.5498 50.3501 52.4998 55.5101C41.8841 73.474 25.4657 87.2859 5.94986 94.6701" stroke="#222222" stroke-opacity="0.3" stroke-width="2" stroke-miterlimit="10"/>
<path d="M13.67 75.78L5.96997 94.67C12.6 95.22 19.22 96.02 25.79 97.06" stroke="#222222" stroke-opacity="0.3" stroke-width="2" stroke-miterlimit="10"/>
</svg>
