<svg width="18" height="12" viewBox="0 0 18 12" fill="none" xmlns="http://www.w3.org/2000/svg">
<path d="M4 4C4 3.46875 4.4375 3 5 3H13C13.5312 3 14 3.46875 14 4V8C14 8.5625 13.5312 9 13 9H5C4.4375 9 4 8.5625 4 8V4ZM12.5 4.5H5.5V7.5H12.5V4.5ZM18 2V4.5C17.1562 4.5 16.5 5.1875 16.5 6C16.5 6.84375 17.1562 7.5 18 7.5V10C18 11.125 17.0938 12 16 12H2C0.875 12 0 11.125 0 10V7.5C0.8125 7.5 1.5 6.84375 1.5 6C1.5 5.1875 0.8125 4.5 0 4.5V2C0 0.90625 0.875 0 2 0H16C17.0938 0 18 0.90625 18 2ZM1.5 3.40625C2.375 3.9375 3 4.90625 3 6C3 7.125 2.375 8.09375 1.5 8.625V10C1.5 10.2812 1.71875 10.5 2 10.5H16C16.25 10.5 16.5 10.2812 16.5 10V8.625C15.5938 8.09375 15 7.125 15 6C15 4.90625 15.5938 3.9375 16.5 3.40625V2C16.5 1.75 16.25 1.5 16 1.5H2C1.71875 1.5 1.5 1.75 1.5 2V3.40625Z" fill="white"/>
</svg>
