<svg width="20" height="17" viewBox="0 0 20 17" fill="none" xmlns="http://www.w3.org/2000/svg">
<path d="M20 2.37557C19.2825 2.69544 18.5052 2.91353 17.6682 3.02984C18.5351 2.50643 19.133 1.76492 19.4619 0.805326C18.6547 1.27058 17.7877 1.59045 16.861 1.76492C16.0538 0.921641 15.0374 0.5 13.8117 0.5C12.7055 0.5 11.7489 0.892562 10.9417 1.67769C10.1345 2.46281 9.73094 3.40787 9.73094 4.51286C9.73094 4.80364 9.77578 5.10897 9.86547 5.42883C8.19133 5.3416 6.60688 4.9345 5.11211 4.20753C3.64723 3.45148 2.40658 2.46281 1.39013 1.24151C1.03139 1.85216 0.852018 2.52097 0.852018 3.24793C0.852018 3.94582 1.01644 4.58555 1.34529 5.16713C1.67414 5.7487 2.10762 6.21396 2.64574 6.5629C2.01794 6.5629 1.40508 6.40297 0.807175 6.0831V6.12672C0.807175 7.08632 1.12108 7.9296 1.74888 8.65657C2.37668 9.38353 3.15396 9.84879 4.08072 10.0523C3.75187 10.1396 3.39312 10.1832 3.00448 10.1832C2.76532 10.1832 2.51121 10.1541 2.24215 10.096C2.51121 10.9102 2.98954 11.579 3.67713 12.1024C4.39462 12.5967 5.18685 12.8584 6.05381 12.8875C4.58894 14.0216 2.89985 14.5886 0.986547 14.5886C0.657698 14.5886 0.328849 14.5741 0 14.545C1.9133 15.7372 4.00598 16.3333 6.27803 16.3333C8.66966 16.3333 10.7922 15.7372 12.6457 14.545C14.3498 13.4982 15.6801 12.0733 16.6368 10.2704C17.5336 8.55479 17.9821 6.79553 17.9821 4.99265L17.9372 4.46924C18.7444 3.91674 19.432 3.21886 20 2.37557Z" fill="white"/>
</svg>
