<svg width="25" height="17" viewBox="0 0 25 17" fill="none" xmlns="http://www.w3.org/2000/svg">
<path d="M5.5 6C5.5 5.26953 6.10156 4.625 6.875 4.625H17.875C18.6055 4.625 19.25 5.26953 19.25 6V11.5C19.25 12.2734 18.6055 12.875 17.875 12.875H6.875C6.10156 12.875 5.5 12.2734 5.5 11.5V6ZM17.1875 6.6875H7.5625V10.8125H17.1875V6.6875ZM24.75 3.25V6.6875C23.5898 6.6875 22.6875 7.63281 22.6875 8.75C22.6875 9.91016 23.5898 10.8125 24.75 10.8125V14.25C24.75 15.7969 23.5039 17 22 17H2.75C1.20312 17 0 15.7969 0 14.25V10.8125C1.11719 10.8125 2.0625 9.91016 2.0625 8.75C2.0625 7.63281 1.11719 6.6875 0 6.6875V3.25C0 1.74609 1.20312 0.5 2.75 0.5H22C23.5039 0.5 24.75 1.74609 24.75 3.25ZM2.0625 5.18359C3.26562 5.91406 4.125 7.24609 4.125 8.75C4.125 10.2969 3.26562 11.6289 2.0625 12.3594V14.25C2.0625 14.6367 2.36328 14.9375 2.75 14.9375H22C22.3438 14.9375 22.6875 14.6367 22.6875 14.25V12.3594C21.4414 11.6289 20.625 10.2969 20.625 8.75C20.625 7.24609 21.4414 5.91406 22.6875 5.18359V3.25C22.6875 2.90625 22.3438 2.5625 22 2.5625H2.75C2.36328 2.5625 2.0625 2.90625 2.0625 3.25V5.18359Z" fill="#212121"/>
</svg>
